<?xml version="1.0" encoding="utf-8"?>
<!-- Generator: Adobe Illustrator 21.0.0, SVG Export Plug-In . SVG Version: 6.00 Build 0)  -->
<!DOCTYPE svg PUBLIC "-//W3C//DTD SVG 1.1//EN" "http://www.w3.org/Graphics/SVG/1.1/DTD/svg11.dtd">
<svg version="1.1" id="Layer_1" xmlns="http://www.w3.org/2000/svg" xmlns:xlink="http://www.w3.org/1999/xlink" x="0px" y="0px"
	 viewBox="0 0 743.4 165.5" style="enable-background:new 0 0 743.4 165.5;" xml:space="preserve">
<style type="text/css">
	.st0{fill:#38B678;}
	.st1{fill:#82573A;}
	.st2{fill:none;stroke:#82573A;stroke-width:0;stroke-linecap:round;stroke-linejoin:round;}
</style>
<g>
	<g>
		<path class="st0" d="M331.4,16.4c25.2,0,41.9,15,41.9,37.5c0,13.8-6.7,24-17.1,27.1c12.1,3.1,20,14.6,20,30.6
			c0,22.5-16.7,37.5-41.7,37.5h-60.9c-1.5,0-2.7-1.3-2.7-2.7V19.3c0-1.3,1.2-2.9,2.7-2.9H331.4z M322.6,68.5c5.8,0,9.6-3.5,9.6-8.8
			c0-5.4-3.8-8.8-9.6-8.8h-12.1v17.7H322.6z M326,114.7c5.6,0,9.4-3.7,9.4-9.2c0-5.6-3.8-9.2-9.4-9.2h-15.6v18.5H326z"/>
		<path class="st0" d="M423.9,16.4c1.7,0,2.9,1.3,2.9,2.9v127.1c0,1.3-1.2,2.7-2.9,2.7h-34c-1.3,0-2.7-1.3-2.7-2.7V19.3
			c0-1.5,1.3-2.9,2.7-2.9H423.9z"/>
		<path class="st0" d="M550.4,146c1,1.7-0.4,3.1-2.1,3.1h-41.1c-1.9,0-3.7-1.3-4.4-3.1l-20-41.9h-2.3v42.3c0,1.3-1.3,2.7-3.1,2.7
			h-33.8c-1.5,0-2.9-1.3-2.9-2.7V19.3c0-1.5,1.3-2.9,2.9-2.9h50.8c29.6,0,49.2,17.3,49.2,43.4c0,15.2-9.2,30.6-23.6,36.7L550.4,146z
			 M491.7,71.4c6.5,0,11-4,11-10.2s-4.4-10.2-11-10.2h-11.3v20.4H491.7z"/>
		<path class="st0" d="M656.9,16.4c1.7,0,2.9,1.3,2.7,2.7l-2.9,29.2c-0.2,1.5-1.7,2.7-3.1,2.7H625v95.3c0,1.3-1.2,2.7-2.7,2.7h-34
			c-1.5,0-2.9-1.3-2.9-2.7V51h-31.9c-1.3,0-2.7-1.2-2.7-2.7v-29c0-1.5,1.3-2.9,2.7-2.9H656.9z"/>
	</g>
	<g>
		<path class="st1" d="M160.5,23.4c1.7-0.1,3.3-0.2,4.9-0.2c1,0,2,0,3.1,0.1c0-0.2,0-0.4,0-0.5c0-0.7,0-1.3,0-2h0c0-0.7,0-1.4,0.1-2
			c-1.1,0-2.1-0.1-3.2-0.1c-1.7,0-3.4,0.1-5.1,0.2c0,1.4,0.1,2.8,0.1,4.3C160.5,23.2,160.5,23.3,160.5,23.4z"/>
		<path class="st1" d="M107.9,52.4c0.2,0.1,0.4,0.2,0.7,0.3c1.1-1.5,2.2-3,3.3-4.4c0.8-0.9,1.6-1.9,2.4-2.8l-0.4-0.2l-2.3-1.1
			l-1.2-0.6c-0.2-0.1-0.3-0.1-0.5-0.2c-0.6,0.6-1.1,1.3-1.7,1.9c-1.5,1.8-2.9,3.7-4.3,5.7l2.7,0.9L107.9,52.4z"/>
		<path class="st1" d="M176.3,20.6L176.3,20.6c0,1.1,0.1,2.3,0.2,3.5c3.5,0.6,6.9,1.4,10.2,2.5c0-1.1,0.1-2.1,0.1-3
			c0-0.7,0-1.2,0-1.7c-3.4-1-6.9-1.8-10.5-2.4C176.3,19.8,176.3,20.2,176.3,20.6L176.3,20.6z"/>
		<path class="st1" d="M119.5,37.6l0.3,0.1l1.9,0.9c2-1.6,4.1-3.1,6.3-4.5l-4.8-2.3c-2.2,1.5-4.3,3.1-6.2,4.8l0.8,0.3L119.5,37.6z"
			/>
		<path class="st1" d="M109.9,133.8c-0.3,0-0.5,0-0.7-0.3c-6-8.3-10.3-18-12.3-28.7c-0.7-4.1-1.1-8.2-1.1-12.3
			c0-11.9,3.1-23.2,8.5-33.2l-3.4-1.5l-0.8-0.3c-5.7,10.6-8.9,22.5-8.9,35c0,4.3,0.4,8.7,1.2,13.1c2,11.3,6.5,21.6,12.9,30.3
			c0.2,0.2,0.2,0.5,0,0.8c-1.2,1.6-1.7,3.8-1.2,5.9c0.9,3.6,4.5,6.1,8.1,5.5c4.1-0.6,6.8-4.4,6.1-8.5
			C117.8,135.8,114.1,133.1,109.9,133.8z"/>
		<path class="st1" d="M238.2,79.6c-3.2-17.9-12.6-33.2-25.6-43.9c-5.8-4.8-12.2-8.7-19.2-11.5c0,1,0.1,2.2,0.2,3.5
			c0,0.5,0.1,1,0.1,1.6c5.8,2.6,11.1,5.9,16,9.9c12.2,10.1,21,24.4,24,41.2c0.8,4.2,1.1,8.5,1.1,12.7c0,17.1-5.8,34.1-15.9,46.8
			c-5,6.3-11.1,11.6-18,15.3c-6.9,3.7-14.6,5.7-23,5.7c-7.5,0-14.3-3.1-19.3-8.1c-5-5-8.1-11.8-8.1-19.1c0-4.9,1.4-10.2,4.7-15.3
			c0,0,0-0.1,0.1-0.1c-0.7-0.3-1.4-0.6-2.1-1c0.7,0.3,1.4,0.6,2.1,1c2.5-3.9,6.2-7.9,11.2-11.5c0,0,0,0,0.1,0c0.3-0.2,0.8-0.2,1.1,0
			c2.3,1.4,5.4,1.1,7.4-0.9c1.4-1.4,2-3.3,1.8-5.1c0-0.4,0.2-0.8,0.5-1c0.3-0.2,0.7-0.4,1-0.7c0.1,0,0.1-0.1,0.2-0.1
			c0.5-0.4,1.1-0.7,1.6-1.1c0.4-0.2,0.8-0.3,1.2,0c2.5,1.6,5.8,1.5,8.1-0.5c1-0.8,1.7-1.8,2.1-3c0.4-1.2,0.5-2.5,0.2-3.7
			c-0.1-0.4,0.1-0.8,0.5-1.1c0.4-0.3,0.8-0.5,1.2-0.8c0.5-0.4,1-0.7,1.5-1.1c0,0,0.1-0.1,0.1-0.1c0.4-0.3,0.9-0.3,1.2,0
			c2.7,2,6.5,2,9.2-0.2c3.1-2.5,3.7-6.8,1.6-10c-0.1-0.2-0.3-0.4-0.5-0.7c0,0-0.3-0.4-1-1.2c-0.1-0.1-0.2-0.2-0.3-0.4
			c-2-2.4-3.5-5.2-4.5-8.1c-0.2-0.6-0.3-1.1-0.4-1.4c-0.5-1.6-0.9-3.2-1.4-4.7l0,0l0,0c-0.3-1-0.5-2-0.8-3l0,0l0,0
			c-0.3-1.3-0.6-2.6-0.9-3.8l0,0c-0.3-1.3-0.6-2.5-0.9-3.8c-0.2-1.3-0.5-2.5-0.7-3.7l0,0c-0.2-1.2-0.5-2.4-0.7-3.6
			c-0.2-1.2-0.4-2.4-0.5-3.5c-0.2-1.1-0.3-2.2-0.5-3.3l0,0c-0.1-1.1-0.2-2.1-0.3-3.1c-0.1-1.5-0.3-2.8-0.4-4.1
			c0-0.5-0.1-0.9-0.1-1.3l0,0l0,0c-0.1-1.4-0.1-2.7-0.2-3.7c0-0.2,0-0.3,0-0.5c-0.1-2.3-0.2-3.7-0.2-3.7l0-0.1
			c-0.1-1.3-1-2.4-2.3-2.7c-0.2,0-0.3,0-0.5,0c-1.5,0-2.7,1.2-2.8,2.7c0,0,0,0.8-0.1,2.2c0,0.5,0,1,0,1.6c0,0.9,0,2-0.1,3.1
			c0,0.4,0,0.8,0,1.3c0,1.7,0.1,3.6,0.2,5.7c0,1,0,2.1,0.1,3.3c0.1,1.1,0.2,2.3,0.3,3.5c0.1,1.2,0.2,2.4,0.3,3.7
			c0.1,1.2,0.3,2.5,0.4,3.8c0.2,1.3,0.3,2.6,0.5,4c0.2,1.3,0.4,2.7,0.6,4c0.2,1.3,0.4,2.7,0.7,4.1c0,0.1,0,0.2,0.1,0.3
			c-0.1-0.1-0.2-0.1-0.2-0.2c-0.1-0.1-0.2-0.1-0.2-0.2c-0.4-0.3-0.8-0.7-1.2-1c-1-0.9-2.1-1.8-3.2-2.7c-0.2-0.2-0.4-0.4-0.7-0.5
			c-1.4-1.1-2.8-2.2-4.2-3.3c-0.1-0.1-0.1-0.1-0.2-0.2c-0.1-0.1-0.2-0.1-0.2-0.2c-0.1-0.1-0.2-0.1-0.2-0.2c-0.5-2.6-0.9-5.1-1.4-7.6
			l0,0l0,0c-0.4-3-0.8-6-1.2-8.8c-0.1-0.7-0.2-1.4-0.3-2.1l0,0l0,0c-0.1-0.7-0.1-1.4-0.2-2c-0.1-1.3-0.2-2.6-0.3-3.8
			c-0.1-1.2-0.2-2.3-0.3-3.3c-0.1-1.2-0.2-2.3-0.2-3.4h0c0-0.4,0-0.8,0-1.2c-0.1-1.5-0.1-2.8-0.1-4c-0.1-2.9-0.2-4.5-0.2-4.5l0,0
			c-0.1-1.6-1.3-3-2.9-3.2c-0.1,0-0.2,0-0.3,0c-1.7,0-3.1,1.4-3.1,3c0,0-0.1,1.7-0.1,4.7c0,1-0.1,2.1-0.1,3.3c0,0.6,0,1.3-0.1,2l0,0
			l0,0c0,0.6,0,1.3,0,2c0,0.2,0,0.4,0,0.6c0,1.4,0.1,2.9,0.1,4.4c0,1.3,0,2.6,0.1,4c0,0.7,0,1.4,0,2.1c0,0.7,0.1,1.4,0.1,2.2
			c0.2,2.8,0.4,5.8,0.6,8.9c-0.1,0-0.1-0.1-0.2-0.1c-0.1,0-0.1-0.1-0.2-0.1c-1.1-0.7-2.2-1.4-3.2-2.1c-1.1-0.7-2.2-1.4-3.3-2.1
			c-0.4-0.3-0.9-0.5-1.3-0.8c-0.1,0-0.1-0.1-0.2-0.1c-0.1,0-0.1-0.1-0.2-0.1c-0.2-2.3-0.4-4.6-0.6-6.8c-0.2-1.7-0.2-3.3-0.3-4.8
			c0-1.5-0.1-2.9-0.1-4.2c0-0.1,0-0.2,0-0.3c0-1.5-0.1-2.9-0.1-4.3c0-0.6,0-1.3,0-1.9c0-0.6,0-1.2,0-1.7h0c0-2.4,0.1-4.4,0.1-6.1
			c0-1.7,0.1-3,0.1-3.9s0-1.4,0-1.4l0,0l0-0.1c0-1.8-1.3-3.4-3-3.6c-0.2,0-0.3,0-0.5,0c-1.8,0-3.4,1.4-3.5,3.2c0,0,0,0.5-0.1,1.4
			c-0.1,0.9-0.2,2.3-0.3,4c-0.1,1.7-0.3,3.8-0.5,6.3l0,0l0,0c-0.2,1.5-0.2,3.2-0.3,4.9c0,1-0.1,2.1-0.1,3.2c0,0.5,0,1,0,1.5
			c0,1-0.1,2.1-0.1,3.2c0,1.1-0.1,2.3-0.1,3.4c0,0.5,0,1,0,1.6l0,0l0,0c0,0.4,0,0.8,0,1.2c-0.1,0-0.1-0.1-0.2-0.1
			c-0.1,0-0.1-0.1-0.2-0.1c-1.9-1-3.8-2-5.6-3c-0.1-0.1-0.3-0.1-0.4-0.2c0,0,0,0,0,0c-0.1-0.1-0.3-0.1-0.4-0.2l0,0
			c-0.6-0.3-1.1-0.5-1.7-0.8c-0.1,0-0.2-0.1-0.3-0.1c-1-0.5-2.1-1-3.1-1.4c-0.3-0.1-0.6-0.3-0.8-0.4c-0.3-0.1-0.6-0.3-0.9-0.4
			c-1.1-0.5-2.2-1-3.3-1.6c-0.2-0.1-0.3-0.1-0.5-0.2c-0.2-0.1-0.3-0.1-0.5-0.2c-2.7-1.1-5.4-2.2-8-3.3c-0.3-0.1-0.7-0.3-1-0.4
			c0,0,0,0-0.1,0c-0.1,0-0.2-0.1-0.3-0.1c-1.5-0.6-3-1.1-4.4-1.6c-1.5-0.5-3-1-4.4-1.5c-2.8-1-5.4-1.9-7.7-2.6
			c-2.3-0.7-4.4-1.3-6-1.7c-3.3-1-5.3-1.5-5.3-1.5c-2-0.6-4.2,0.6-4.7,2.7c-0.4,1.9,0.7,3.8,2.5,4.4l0,0c0,0,1.8,0.7,5,1.8
			c1.6,0.6,3.5,1.3,5.7,2.1c2.2,0.7,4.7,1.8,7.3,2.9c1.1,0.5,2.3,1,3.5,1.5c0.1,0,0.2,0.1,0.3,0.1c0.1,0,0.2,0.1,0.3,0.1
			c0,0,0,0,0,0l0,0c0.3,0.1,0.5,0.2,0.8,0.3c1,0.4,2,0.8,3,1.3c0.2,0.1,0.4,0.2,0.7,0.3c0.9,0.4,1.8,0.8,2.6,1.3
			c1.6,0.8,3.2,1.5,4.8,2.3c0.4,0.2,0.9,0.4,1.2,0.6c0.2,0.1,0.4,0.2,0.7,0.3c1,0.6,2.1,1.1,3.1,1.7c0.1,0.1,0.2,0.1,0.3,0.2
			c2.1,1.1,4.2,2.3,6.4,3.5c1.4,0.8,2.8,1.7,4.2,2.6c1.6,1,3.1,1.9,4.7,2.9c1.7,1.1,3.4,2.3,5.1,3.4c1.4,0.9,2.7,1.8,4.1,2.8
			c0.4,0.3,0.7,0.5,1.1,0.8c2.5,1.9,5.1,3.8,7.5,5.7c0.4,0.3,0.8,0.7,1.3,1c1.4,1.1,2.8,2.2,4,3.3c1.3,1.1,2.5,2.2,3.7,3.3
			c1.2,1.1,2.4,2.2,3.5,3.2c1.1,1.1,2.2,2.1,3.2,3.1c1.6,1.7,3.2,3.3,4.5,4.8c0.3,0.3,0.5,0.6,0.7,0.8c1.5,1.7,2.7,3.2,3.8,4.4
			c0.2,0.3,0.4,0.5,0.6,0.8c0,0,0,0,0,0.1c0.4,0.5,0.3,1.2-0.2,1.6c-0.1,0.1-0.2,0.1-0.2,0.2c-0.6,0.4-1.2,0.8-1.8,1.3
			c-0.5,0.3-1.1,0.2-1.4-0.2c-0.4-0.5-0.9-1-1.4-1.6c-1.1-1.1-2.3-2.5-3.9-4c-1.5-1.5-3.3-3.1-5.2-4.9c-0.9-0.9-2-1.8-3-2.7
			c-1.1-0.9-2.1-1.9-3.3-2.8c-0.5-0.4-1-0.8-1.6-1.3c-0.7-0.5-1.3-1.1-2-1.6c-1.2-1-2.5-1.9-3.8-2.9c-0.9-0.7-1.9-1.4-2.8-2.1
			c-0.4-0.3-0.8-0.6-1.2-0.8c-1.4-0.9-2.7-1.9-4.1-2.9c-0.7-0.5-1.4-1-2.1-1.4c-0.7-0.5-1.4-0.9-2.2-1.4c-1.4-0.9-2.9-1.8-4.3-2.7
			c-0.5-0.3-0.9-0.5-1.4-0.8c-2.5-1.5-5-2.9-7.4-4.3c-3-1.5-5.9-3.1-8.8-4.5c-0.9-0.4-1.8-0.8-2.6-1.2c-0.1,0-0.2-0.1-0.3-0.1
			c-0.1,0-0.2-0.1-0.3-0.1l0,0c0,0,0,0-0.1,0c-1-0.5-2-0.9-2.9-1.3c-0.7-0.3-1.5-0.7-2.2-1c-0.1,0-0.2-0.1-0.3-0.1
			c-0.6-0.3-1.1-0.5-1.7-0.8c-0.7-0.3-1.3-0.5-2-0.8c-0.4-0.1-0.7-0.3-1.1-0.4c-0.9-0.4-1.8-0.7-2.6-1.1c0,0-0.1,0-0.1,0
			c-1-0.4-2-0.8-2.9-1.2c-0.1,0-0.1-0.1-0.2-0.1h0c-0.1,0-0.2-0.1-0.3-0.1c-0.1,0-0.2-0.1-0.3-0.1c-0.9-0.4-1.9-0.7-2.7-1
			c-2-0.7-3.7-1.3-5.1-1.8c-2.8-1-4.4-1.5-4.4-1.5c-1.8-0.6-3.8,0.4-4.3,2.2c-0.5,1.7,0.5,3.4,2.1,4.1l0,0c0,0,1.5,0.6,4.2,1.8
			c1.3,0.6,2.9,1.2,4.8,2c0.3,0.1,0.6,0.2,0.9,0.4c0.1,0,0.2,0.1,0.3,0.1c0.1,0,0.2,0.1,0.3,0.1c0,0,0,0,0,0
			c0.4,0.2,0.9,0.4,1.3,0.6c0.2,0.1,0.5,0.2,0.7,0.3c0.3,0.2,0.7,0.3,1,0.5c0.4,0.2,0.8,0.4,1.3,0.6c0.1,0,0.2,0.1,0.3,0.1
			c0,0,0,0,0,0c0.3,0.2,0.6,0.3,1,0.5c0.7,0.3,1.4,0.7,2.1,1c0.1,0.1,0.3,0.1,0.4,0.2c0.2,0.1,0.4,0.2,0.5,0.3
			c0.4,0.2,0.9,0.4,1.3,0.6c0.6,0.3,1.2,0.7,1.8,1c0.8,0.5,1.7,0.9,2.6,1.4c0,0,0,0,0,0h0c0.1,0,0.2,0.1,0.3,0.1
			c0.1,0,0.2,0.1,0.3,0.1c1.5,0.8,3.1,1.6,4.6,2.5c2.6,1.6,5.4,3.2,8.1,4.9c2.7,1.8,5.4,3.6,8.1,5.4c1.3,1,2.6,1.9,4,2.9
			c0.7,0.5,1.3,1,2,1.4c0.6,0.4,1.1,0.9,1.7,1.3c0.1,0,0.1,0.1,0.2,0.2c1.3,1,2.5,2,3.7,3c1.2,1,2.4,2,3.6,3c1.1,1,2.3,1.9,3.4,2.9
			c1.1,1,2.1,2,3.2,2.9c1,0.9,2,1.9,2.9,2.8c0.9,0.9,1.8,1.8,2.7,2.7c1,1,1.9,2,2.8,2.9c0.6,0.6,1.2,1.3,1.7,1.9
			c1.3,1.4,2.4,2.8,3.2,3.8c0.1,0.1,0.2,0.2,0.2,0.3c0,0,0,0,0,0c0.4,0.5,0.2,1.2-0.3,1.5c-0.4,0.2-0.7,0.5-1.1,0.7
			c-0.3,0.2-0.5,0.4-0.8,0.5c-0.4,0.3-1,0.2-1.4-0.1c0,0-0.1-0.1-0.1-0.1c-0.3-0.3-0.7-0.7-1.2-1.2c-0.9-0.9-2-1.9-3.3-3
			c-1.3-1.1-2.7-2.4-4.3-3.8c-1.6-1.4-3.4-2.8-5.2-4.3c-1.9-1.5-3.9-3-6-4.6c-0.2-0.1-0.3-0.3-0.5-0.4c-0.9-0.7-1.8-1.3-2.7-2
			c-0.5-0.4-1.1-0.8-1.6-1.2c-0.6-0.4-1.1-0.8-1.7-1.2c-1.1-0.8-2.3-1.6-3.4-2.3c-1.4-1-2.9-1.8-4.3-2.8c-0.9-0.6-1.8-1.1-2.7-1.7
			c-1.2-0.7-2.4-1.4-3.6-2.1c-1.2-0.7-2.3-1.4-3.5-2c-1.2-0.6-2.4-1.3-3.5-1.9c-1.2-0.6-2.3-1.2-3.4-1.8c-1.1-0.5-2.3-1.1-3.3-1.6
			c-1.1-0.5-2.1-1-3.1-1.5c-0.2-0.1-0.5-0.2-0.7-0.3c-0.1-0.1-0.2-0.1-0.4-0.2c-0.1,0-0.2-0.1-0.3-0.1l0,0c0,0,0,0,0,0
			c-0.6-0.2-1.1-0.5-1.7-0.7c0,0,0,0,0,0c-1-0.4-1.9-0.8-2.8-1.2c-0.7-0.3-1.3-0.6-2-0.8c-0.2-0.1-0.4-0.1-0.5-0.2
			c-0.3-0.1-0.6-0.2-0.9-0.3c-1.1-0.4-2.1-0.7-3-1.1c-0.1,0-0.2-0.1-0.3-0.1c-0.2-0.1-0.4-0.1-0.6-0.2c-1.5-0.5-2.5-0.9-2.9-1
			c0,0-0.1,0-0.1,0v0c-0.1,0-0.1,0-0.1,0c-0.1,0-0.1,0-0.2,0c-0.1,0-0.2-0.1-0.3-0.1c-1.5-0.2-3.1,0.7-3.4,2.4
			c-0.1,0.8,0.1,1.6,0.5,2.2c0.1,0.1,0.1,0.2,0.2,0.3c0.1,0.1,0.1,0.2,0.2,0.2c0,0,0,0,0,0c0,0,0,0,0.1,0c0,0,0,0,0,0
			c0.1,0.1,0.2,0.2,0.4,0.3c0,0,0,0,0,0c0.1,0.1,0.2,0.1,0.3,0.2l0.1,0l0,0l0,0l0.1,0c0,0,0.1,0,0.2,0.1c0.1,0,0.2,0.1,0.4,0.2
			c0.3,0.1,0.8,0.3,1.4,0.6c0.2,0.1,0.4,0.2,0.6,0.3c0.2,0.1,0.5,0.2,0.8,0.3c0.2,0.1,0.5,0.2,0.7,0.3c0.8,0.3,1.7,0.7,2.7,1.2
			c0.1,0.1,0.3,0.1,0.4,0.2c0.4,0.2,0.7,0.4,1.1,0.6c0.4,0.2,0.8,0.4,1.2,0.6c0.8,0.4,1.7,0.8,2.6,1.3c0.3,0.1,0.6,0.3,0.9,0.4l0,0
			c0.1,0,0.2,0.1,0.3,0.1c0.1,0,0.2,0.1,0.3,0.1c0.5,0.2,0.9,0.5,1.4,0.7c0.9,0.5,1.9,1.1,2.9,1.6c1,0.6,2,1.1,3.1,1.7
			c1,0.6,2.1,1.3,3.1,1.9c1.1,0.7,2.1,1.3,3.2,2c1.1,0.7,2.2,1.4,3.2,2.2c1.1,0.7,2.2,1.5,3.3,2.2c0.8,0.6,1.7,1.2,2.5,1.8
			c1.3,1,2.7,1.9,3.9,3c1,0.8,2.1,1.6,3.1,2.5c0.5,0.4,1,0.8,1.5,1.2c0.5,0.4,1,0.8,1.5,1.3c1,0.8,2,1.6,2.9,2.5
			c1.9,1.7,3.7,3.2,5.4,4.8c1.7,1.6,3.2,3,4.7,4.5c1.4,1.4,2.7,2.7,3.8,3.9c0.6,0.6,1.4,1.5,2.1,2.2c0.1,0.3,0.3,0.5,0.4,0.8
			c0,0.4-0.1,0.8-0.4,1c-5.2,3.9-9.2,8.2-11.9,12.7c0,0,0,0,0,0l0,0c-3.5,5.7-5.1,11.6-5.1,17.3c0,8.6,3.6,16.5,9.4,22.3
			c5.8,5.8,13.8,9.4,22.5,9.4c9.2,0,17.7-2.3,25.2-6.3c11.3-6,20.3-15.8,26.6-27.4c6.2-11.6,9.7-25.1,9.7-38.7
			C239.4,88.6,239,84.1,238.2,79.6z"/>
		<path class="st1" d="M151.4,24.6c0-0.5,0-1,0-1.6c0-1.1,0.1-2.1,0.1-3.1c-5.8,1.1-11.3,2.9-16.5,5.2l5.6,2.6
			C144.1,26.4,147.7,25.4,151.4,24.6z"/>
		<polygon class="st1" points="116.7,28.4 116.8,28.2 116.6,28.4 		"/>
		<path class="st2" d="M123.7,40.1c1,0.4,1.9,0.9,2.9,1.3"/>
		<path class="st2" d="M107.5,41.5c-0.4-0.2-0.9-0.4-1.3-0.6"/>
		<path class="st2" d="M109.2,42.4c-0.4-0.2-0.7-0.3-1-0.5"/>
		<path class="st2" d="M134.3,25.5c-0.2-0.1-0.3-0.1-0.5-0.2"/>
		<path class="st2" d="M139,27.6c0.3,0.1,0.6,0.3,0.8,0.4"/>
		<path class="st2" d="M97.4,55.6C97.4,55.5,97.4,55.5,97.4,55.6"/>
		<path class="st2" d="M97,55.2C97,55.2,97,55.2,97,55.2"/>
		<path class="st2" d="M113,55.1c0.6,0.2,1.1,0.5,1.7,0.7"/>
	</g>
</g>
</svg>
